<svg width="168" height="86" viewBox="0 0 178 96" fill="none" xmlns="http://www.w3.org/2000/svg">
<path d="M88.6303 63.8019C80.184 63.8019 72.2342 60.4866 66.2662 54.4569C60.2873 48.4383 57 40.4171 57 31.8991C57 23.3848 60.2873 15.3636 66.2662 9.345C72.2342 3.31525 80.184 0 88.6303 0C97.0765 0 105.026 3.31525 110.994 9.345C116.977 15.3748 120.264 23.3848 120.264 31.8991C120.264 40.4171 116.977 48.4383 110.994 54.4569C105.026 60.4866 97.0765 63.8019 88.6303 63.8019ZM88.6303 1.9135C80.6914 1.9135 73.2196 5.03592 67.6047 10.6985C61.9935 16.3575 58.8937 23.8928 58.8937 31.8991C58.8937 39.9091 61.9935 47.4444 67.6047 53.1033C73.2196 58.766 80.6914 61.8884 88.6303 61.8884C96.5691 61.8884 104.041 58.766 109.656 53.1033C115.267 47.4444 118.367 39.9091 118.367 31.8991C118.367 23.8928 115.267 16.3575 109.656 10.6985C104.041 5.03592 96.5691 1.9135 88.6303 1.9135Z" fill="#526C3F"/>
<path d="M105.858 20.8521C105.527 20.5406 105.008 20.5591 104.703 20.8966L98.0624 28.1204L97.6101 27.6977L104.251 20.4701C104.556 20.1364 104.538 19.6172 104.207 19.3057C103.876 18.9979 103.357 19.0164 103.048 19.3502L96.4114 26.5777L95.9554 26.155L102.596 18.9274C102.905 18.5937 102.883 18.0708 102.552 17.763C102.225 17.4515 101.706 17.4738 101.397 17.8075L94.7567 25.0351L94.3044 24.6123L100.945 17.3848C101.254 17.051 101.232 16.5282 100.901 16.2204C100.57 15.9089 100.055 15.9311 99.7465 16.2649L93.1057 23.4924V23.4887L92.8961 23.7075C92.7122 23.9077 92.5467 24.108 92.396 24.3157L92.3886 24.3231C91.8297 25.0944 91.5061 25.8917 91.5098 26.8299C91.5135 27.8126 91.8554 28.7434 92.4769 29.5073C92.0577 29.956 90.1897 31.7917 87.9394 33.9944C85.2477 31.1093 82.8687 28.5506 82.3906 27.9869C83.0893 27.2082 83.4974 26.2403 83.5452 25.1982C83.593 24.2081 83.2952 23.3441 82.7363 22.5023H82.74L82.7289 22.4912C82.5818 22.2687 82.4164 22.0462 82.2325 21.82L82.0229 21.5789L82.0192 21.5826L81.2029 20.726C76.7206 16.7766 74.4886 16.4354 73.1832 17.5628C71.6536 18.8829 71.1351 21.1784 74.5658 26.4776L75.3196 27.4937L75.4042 27.5938C76.3234 28.7175 77.2059 29.3516 78.4782 29.511C79.4453 29.6334 80.405 29.4257 81.2507 28.9288C81.7251 29.511 83.8909 32.3739 86.3104 35.5853C82.9826 38.8375 79.3865 42.3382 78.4525 43.2727C77.798 43.9031 77.4376 44.3332 77.4376 44.3332C76.7978 45.0267 76.8456 46.1095 77.5369 46.7585C78.2282 47.4037 79.3056 47.3667 79.9417 46.6732C79.9417 46.6732 80.394 46.1948 80.7874 45.7276H80.7911C81.3721 45.0564 84.6116 41.1292 87.6893 37.4135C90.5721 41.2479 93.4329 45.0601 93.9808 45.7535V45.7498C94.3779 46.2653 94.8302 46.7956 94.8302 46.7956C95.47 47.5632 96.6099 47.6559 97.3748 47.0032C98.1396 46.3506 98.2425 45.2047 97.5991 44.4408C97.5991 44.4408 97.2387 43.9661 96.5731 43.269C95.6943 42.3011 92.4695 38.8523 89.3072 35.4629C91.3664 32.982 93.0946 30.9091 93.5138 30.4418C94.286 30.9499 95.1795 31.1872 96.0951 31.1167C97.3012 31.0203 98.1616 30.4604 99.0736 29.448L99.1581 29.3553L99.1618 29.3516L105.902 22.0128C106.207 21.6827 106.189 21.1599 105.858 20.8521Z" fill="#99A146"/>
<path d="M0 76.0297H8.32492C10.7665 76.0297 12.6565 76.6156 14.0023 77.78C15.3445 78.9481 16.0174 80.6057 16.0174 82.7492C16.0174 85.0038 15.3445 86.7542 14.0023 88.0002C12.6565 89.2462 10.7665 89.8692 8.32492 89.8692H4.85375V95.2982H0V76.0297ZM4.85375 79.8863V86.0273H8.07488C9.15226 86.0273 9.9796 85.7603 10.5606 85.2263C11.1489 84.6923 11.4431 83.921 11.4431 82.9123C11.4431 81.9259 11.1489 81.1731 10.5606 80.6577C9.9796 80.1459 9.15226 79.8863 8.07488 79.8863H4.85375Z" fill="black"/>
<path d="M25.3227 91.1893H33.4417V95.2982H20.469V76.0297H25.3227V91.1893Z" fill="black"/>
<path d="M50.3563 91.753H42.002L40.6047 95.2982H35.6186L43.8553 76.0297H48.8561L56.9016 95.2982H51.7242L50.3563 91.753ZM48.9296 88.0298L46.2086 80.895L43.4287 88.0298H48.9296Z" fill="black"/>
<path d="M75.1936 79.9605H69.428V95.2982H64.5742V79.9605H58.8674V76H75.1936V79.9605Z" fill="black"/>
<path d="M94.1325 79.8863H84.0279V83.7133H93.1471V87.5552H84.0279V91.4415H94.4267V95.2982H79.1741V76.0297H94.1325V79.8863Z" fill="black"/>
<path d="M99.4794 76.0297H107.804C110.246 76.0297 112.136 76.6156 113.482 77.78C114.824 78.9481 115.497 80.6057 115.497 82.7492C115.497 85.0038 114.824 86.7542 113.482 88.0002C112.136 89.2462 110.246 89.8692 107.804 89.8692H104.333V95.2982H99.4794V76.0297ZM104.333 79.8863V86.0273H107.554C108.632 86.0273 109.459 85.7603 110.04 85.2263C110.628 84.6923 110.922 83.921 110.922 82.9123C110.922 81.9259 110.628 81.1731 110.04 80.6577C109.459 80.1459 108.632 79.8863 107.554 79.8863H104.333Z" fill="black"/>
<path d="M124.802 91.1893H132.921V95.2982H119.948V76.0297H124.802V91.1893Z" fill="black"/>
<path d="M149.836 91.753H141.481L140.084 95.2982H135.098L143.335 76.0297H148.335L156.381 95.2982H151.204L149.836 91.753ZM148.409 88.0298L145.688 80.895L142.908 88.0298H148.409Z" fill="black"/>
<path d="M177.703 95.2982H173.423L164.627 83.4315V95.2982H160.068V76.0297H164.348L173.173 87.926V76.0297H177.703V95.2982Z" fill="black"/>
</svg>
